  0
SECTION
  2
HEADER
  9
$ACADVER
  1
AC1021
  9
$ACADMAINTVER
 70
     1
  9
$DWGCODEPAGE
  3
ANSI_936
  9
$LASTSAVEDBY
  1
Administrator
  9
$INSBASE
 10
0.0
 20
0.0
 30
0.0
  9
$EXTMIN
 10
21.89956632938959
 20
9.324116804371215
 30
0.0
  9
$EXTMAX
 10
63.60573574435864
 20
29.29725052761959
 30
0.0
  9
$LIMMIN
 10
0.0
 20
0.0
  9
$LIMMAX
 10
12.0
 20
9.0
  9
$ORTHOMODE
 70
     0
  9
$REGENMODE
 70
     1
  9
$FILLMODE
 70
     1
  9
$QTEXTMODE
 70
     0
  9
$MIRRTEXT
 70
     0
  9
$LTSCALE
 40
1.0
  9
$ATTMODE
 70
     1
  9
$TEXTSIZE
 40
0.2
  9
$TRACEWID
 40
0.05
  9
$TEXTSTYLE
  7
Standard
  9
$CLAYER
  8
0
  9
$CELTYPE
  6
ByLayer
  9
$CECOLOR
 62
   256
  9
$CELTSCALE
 40
1.0
  9
$DISPSILH
 70
     0
  9
$DIMSCALE
 40
1.0
  9
$DIMASZ
 40
0.18
  9
$DIMEXO
 40
0.0625
  9
$DIMDLI
 40
0.38
  9
$DIMRND
 40
0.0
  9
$DIMDLE
 40
0.0
  9
$DIMEXE
 40
0.18
  9
$DIMTP
 40
0.0
  9
$DIMTM
 40
0.0
  9
$DIMTXT
 40
0.18
  9
$DIMCEN
 40
0.09
  9
$DIMTSZ
 40
0.0
  9
$DIMTOL
 70
     0
  9
$DIMLIM
 70
     0
  9
$DIMTIH
 70
     1
  9
$DIMTOH
 70
     1
  9
$DIMSE1
 70
     0
  9
$DIMSE2
 70
     0
  9
$DIMTAD
 70
     0
  9
$DIMZIN
 70
     0
  9
$DIMBLK
  1

  9
$DIMASO
 70
     1
  9
$DIMSHO
 70
     1
  9
$DIMPOST
  1

  9
$DIMAPOST
  1

  9
$DIMALT
 70
     0
  9
$DIMALTD
 70
     2
  9
$DIMALTF
 40
25.4
  9
$DIMLFAC
 40
1.0
  9
$DIMTOFL
 70
     0
  9
$DIMTVP
 40
0.0
  9
$DIMTIX
 70
     0
  9
$DIMSOXD
 70
     0
  9
$DIMSAH
 70
     0
  9
$DIMBLK1
  1

  9
$DIMBLK2
  1

  9
$DIMSTYLE
  2
Standard
  9
$DIMCLRD
 70
     0
  9
$DIMCLRE
 70
     0
  9
$DIMCLRT
 70
     0
  9
$DIMTFAC
 40
1.0
  9
$DIMGAP
 40
0.09
  9
$DIMJUST
 70
     0
  9
$DIMSD1
 70
     0
  9
$DIMSD2
 70
     0
  9
$DIMTOLJ
 70
     1
  9
$DIMTZIN
 70
     0
  9
$DIMALTZ
 70
     0
  9
$DIMALTTZ
 70
     0
  9
$DIMUPT
 70
     0
  9
$DIMDEC
 70
     4
  9
$DIMTDEC
 70
     4
  9
$DIMALTU
 70
     2
  9
$DIMALTTD
 70
     2
  9
$DIMTXSTY
  7
Standard
  9
$DIMAUNIT
 70
     0
  9
$DIMADEC
 70
     0
  9
$DIMALTRND
 40
0.0
  9
$DIMAZIN
 70
     0
  9
$DIMDSEP
 70
    46
  9
$DIMATFIT
 70
     3
  9
$DIMFRAC
 70
     0
  9
$DIMLDRBLK
  1

  9
$DIMLUNIT
 70
     2
  9
$DIMLWD
 70
    -2
  9
$DIMLWE
 70
    -2
  9
$DIMTMOVE
 70
     0
  9
$DIMFXL
 40
1.0
  9
$DIMFXLON
 70
     0
  9
$DIMJOGANG
 40
0.7853981633974483
  9
$DIMTFILL
 70
     0
  9
$DIMTFILLCLR
 70
     0
  9
$DIMARCSYM
 70
     0
  9
$DIMLTYPE
  6

  9
$DIMLTEX1
  6

  9
$DIMLTEX2
  6

  9
$LUNITS
 70
     2
  9
$LUPREC
 70
     4
  9
$SKETCHINC
 40
0.1
  9
$FILLETRAD
 40
0.0
  9
$AUNITS
 70
     0
  9
$AUPREC
 70
     0
  9
$MENU
  1
.
  9
$ELEVATION
 40
0.0
  9
$PELEVATION
 40
0.0
  9
$THICKNESS
 40
0.0
  9
$LIMCHECK
 70
     0
  9
$CHAMFERA
 40
0.0
  9
$CHAMFERB
 40
0.0
  9
$CHAMFERC
 40
0.0
  9
$CHAMFERD
 40
0.0
  9
$SKPOLY
 70
     0
  9
$TDCREATE
 40
2456512.454843565
  9
$TDUCREATE
 40
2456512.121510232
  9
$TDUPDATE
 40
2456512.458586331
  9
$TDUUPDATE
 40
2456512.125252998
  9
$TDINDWG
 40
0.0037436690
  9
$TDUSRTIMER
 40
0.0037436690
  9
$USRTIMER
 70
     1
  9
$ANGBASE
 50
0.0
  9
$ANGDIR
 70
     0
  9
$PDMODE
 70
     0
  9
$PDSIZE
 40
0.0
  9
$PLINEWID
 40
0.0
  9
$SPLFRAME
 70
     0
  9
$SPLINETYPE
 70
     6
  9
$SPLINESEGS
 70
     8
  9
$HANDSEED
  5
1F5
  9
$SURFTAB1
 70
     6
  9
$SURFTAB2
 70
     6
  9
$SURFTYPE
 70
     6
  9
$SURFU
 70
     6
  9
$SURFV
 70
     6
  9
$UCSBASE
  2

  9
$UCSNAME
  2

  9
$UCSORG
 10
0.0
 20
0.0
 30
0.0
  9
$UCSXDIR
 10
1.0
 20
0.0
 30
0.0
  9
$UCSYDIR
 10
0.0
 20
1.0
 30
0.0
  9
$UCSORTHOREF
  2

  9
$UCSORTHOVIEW
 70
     0
  9
$UCSORGTOP
 10
0.0
 20
0.0
 30
0.0
  9
$UCSORGBOTTOM
 10
0.0
 20
0.0
 30
0.0
  9
$UCSORGLEFT
 10
0.0
 20
0.0
 30
0.0
  9
$UCSORGRIGHT
 10
0.0
 20
0.0
 30
0.0
  9
$UCSORGFRONT
 10
0.0
 20
0.0
 30
0.0
  9
$UCSORGBACK
 10
0.0
 20
0.0
 30
0.0
  9
$PUCSBASE
  2

  9
$PUCSNAME
  2

  9
$PUCSORG
 10
0.0
 20
0.0
 30
0.0
  9
$PUCSXDIR
 10
1.0
 20
0.0
 30
0.0
  9
$PUCSYDIR
 10
0.0
 20
1.0
 30
0.0
  9
$PUCSORTHOREF
  2

  9
$PUCSORTHOVIEW
 70
     0
  9
$PUCSORGTOP
 10
0.0
 20
0.0
 30
0.0
  9
$PUCSORGBOTTOM
 10
0.0
 20
0.0
 30
0.0
  9
$PUCSORGLEFT
 10
0.0
 20
0.0
 30
0.0
  9
$PUCSORGRIGHT
 10
0.0
 20
0.0
 30
0.0
  9
$PUCSORGFRONT
 10
0.0
 20
0.0
 30
0.0
  9
$PUCSORGBACK
 10
0.0
 20
0.0
 30
0.0
  9
$USERI1
 70
     0
  9
$USERI2
 70
     0
  9
$USERI3
 70
     0
  9
$USERI4
 70
     0
  9
$USERI5
 70
     0
  9
$USERR1
 40
0.0
  9
$USERR2
 40
0.0
  9
$USERR3
 40
0.0
  9
$USERR4
 40
0.0
  9
$USERR5
 40
0.0
  9
$WORLDVIEW
 70
     1
  9
$SHADEDGE
 70
     3
  9
$SHADEDIF
 70
    70
  9
$TILEMODE
 70
     1
  9
$MAXACTVP
 70
    64
  9
$PINSBASE
 10
0.0
 20
0.0
 30
0.0
  9
$PLIMCHECK
 70
     0
  9
$PEXTMIN
 10
0.0
 20
0.0
 30
0.0
  9
$PEXTMAX
 10
0.0
 20
0.0
 30
0.0
  9
$PLIMMIN
 10
0.0
 20
0.0
  9
$PLIMMAX
 10
12.0
 20
9.0
  9
$UNITMODE
 70
     0
  9
$VISRETAIN
 70
     1
  9
$PLINEGEN
 70
     0
  9
$PSLTSCALE
 70
     1
  9
$TREEDEPTH
 70
  3020
  9
$CMLSTYLE
  2
Standard
  9
$CMLJUST
 70
     0
  9
$CMLSCALE
 40
1.0
  9
$PROXYGRAPHICS
 70
     1
  9
$MEASUREMENT
 70
     0
  9
$CELWEIGHT
370
    -1
  9
$ENDCAPS
280
     0
  9
$JOINSTYLE
280
     0
  9
$LWDISPLAY
290
     0
  9
$INSUNITS
 70
     1
  9
$HYPERLINKBASE
  1

  9
$STYLESHEET
  1

  9
$XEDIT
290
     1
  9
$CEPSNTYPE
380
     0
  9
$PSTYLEMODE
290
     1
  9
$FINGERPRINTGUID
  2
{D6A9FAF0-B5ED-4DEA-9DD4-6E546305375F}
  9
$VERSIONGUID
  2
{5EBAFD0B-20EC-4BD0-A6E4-DDC63932542B}
  9
$EXTNAMES
290
     1
  9
$PSVPSCALE
 40
0.0
  9
$OLESTARTUP
290
     0
  9
$SORTENTS
280
   127
  9
$INDEXCTL
280
     0
  9
$HIDETEXT
280
     1
  9
$XCLIPFRAME
290
     0
  9
$HALOGAP
280
     0
  9
$OBSCOLOR
 70
   257
  9
$OBSLTYPE
280
     0
  9
$INTERSECTIONDISPLAY
280
     0
  9
$INTERSECTIONCOLOR
 70
   257
  9
$DIMASSOC
280
     2
  9
$PROJECTNAME
  1

  9
$CAMERADISPLAY
290
     0
  9
$LENSLENGTH
 40
50.0
  9
$CAMERAHEIGHT
 40
0.0
  9
$STEPSPERSEC
 40
2.0
  9
$STEPSIZE
 40
6.0
  9
$3DDWFPREC
 40
2.0
  9
$PSOLWIDTH
 40
0.25
  9
$PSOLHEIGHT
 40
4.0
  9
$LOFTANG1
 40
1.570796326794896
  9
$LOFTANG2
 40
1.570796326794896
  9
$LOFTMAG1
 40
0.0
  9
$LOFTMAG2
 40
0.0
  9
$LOFTPARAM
 70
     7
  9
$LOFTNORMALS
280
     1
  9
$LATITUDE
 40
37.795
  9
$LONGITUDE
 40
-122.394
  9
$NORTHDIRECTION
 40
0.0
  9
$TIMEZONE
 70
 -8000
  9
$LIGHTGLYPHDISPLAY
280
     1
  9
$TILEMODELIGHTSYNCH
280
     1
  9
$CMATERIAL
347
94
  9
$SOLIDHIST
280
     1
  9
$SHOWHIST
280
     1
  9
$DWFFRAME
280
     2
  9
$DGNFRAME
280
     0
  9
$REALWORLDSCALE
290
     1
  9
$INTERFERECOLOR
 62
     1
  9
$INTERFEREOBJVS
345
A1
  9
$INTERFEREVPVS
346
9E
  9
$CSHADOW
280
     0
  9
$SHADOWPLANELOCATION
 40
0.0
  0
ENDSEC
  0
SECTION
  2
CLASSES
  0
CLASS
  1
ACDBDICTIONARYWDFLT
  2
AcDbDictionaryWithDefault
  3
ObjectDBX Classes
 90
        0
 91
        1
280
     0
281
     0
  0
CLASS
  1
DICTIONARYVAR
  2
AcDbDictionaryVar
  3
ObjectDBX Classes
 90
        0
 91
        3
280
     0
281
     0
  0
CLASS
  1
TABLESTYLE
  2
AcDbTableStyle
  3
ObjectDBX Classes
 90
     4095
 91
        1
280
     0
281
     0
  0
CLASS
  1
MATERIAL
  2
AcDbMaterial
  3
ObjectDBX Classes
 90
     1024
 91
        3
280
     0
281
     0
  0
CLASS
  1
VISUALSTYLE
  2
AcDbVisualStyle
  3
ObjectDBX Classes
 90
     4095
 91
       16
280
     0
281
     0
  0
CLASS
  1
ACAD_TABLE
  2
AcDbTable
  3
ObjectDBX Classes
 90
     1025
 91
        2
280
     0
281
     1
  0
ENDSEC
  0
SECTION
  2
TABLES
  0
TABLE
  2
VPORT
  5
8
330
0
100
AcDbSymbolTable
 70
     1
  0
VPORT
  5
92
330
8
100
AcDbSymbolTableRecord
100
AcDbViewportTableRecord
  2
*Active
 70
     0
 10
0.0
 20
0.0
 11
1.0
 21
1.0
 12
38.93568279992777
 22
12.1173111470669
 13
0.0
 23
0.0
 14
0.5
 24
0.5
 15
0.5
 25
0.5
 16
0.0
 26
0.0
 36
1.0
 17
0.0
 27
0.0
 37
0.0
 40
18.18792688562883
 41
2.324376199616122
 42
50.0
 43
0.0
 44
0.0
 50
0.0
 51
0.0
 71
     0
 72
  1000
 73
     1
 74
     3
 75
     0
 76
     0
 77
     0
 78
     0
281
     0
 65
     1
110
0.0
120
0.0
130
0.0
111
1.0
121
0.0
131
0.0
112
0.0
122
1.0
132
0.0
 79
     0
146
0.0
348
9D
 60
     2
 61
     5
292
     1
282
     1
141
0.0
142
0.0
 63
   250
421
  3355443
  0
ENDTAB
  0
TABLE
  2
LTYPE
  5
5
330
0
100
AcDbSymbolTable
 70
     1
  0
LTYPE
  5
14
330
5
100
AcDbSymbolTableRecord
100
AcDbLinetypeTableRecord
  2
ByBlock
 70
     0
  3

 72
    65
 73
     0
 40
0.0
  0
LTYPE
  5
15
330
5
100
AcDbSymbolTableRecord
100
AcDbLinetypeTableRecord
  2
ByLayer
 70
     0
  3

 72
    65
 73
     0
 40
0.0
  0
LTYPE
  5
16
330
5
100
AcDbSymbolTableRecord
100
AcDbLinetypeTableRecord
  2
Continuous
 70
     0
  3
Solid line
 72
    65
 73
     0
 40
0.0
  0
ENDTAB
  0
TABLE
  2
LAYER
  5
2
330
0
100
AcDbSymbolTable
 70
     1
  0
LAYER
  5
10
330
2
100
AcDbSymbolTableRecord
100
AcDbLayerTableRecord
  2
0
 70
     0
 62
     7
  6
Continuous
370
    -3
390
F
347
96
  0
ENDTAB
  0
TABLE
  2
STYLE
  5
3
330
0
100
AcDbSymbolTable
 70
     1
  0
STYLE
  5
11
330
3
100
AcDbSymbolTableRecord
100
AcDbTextStyleTableRecord
  2
Standard
 70
     0
 40
0.0
 41
1.0
 50
0.0
 71
     0
 42
0.2
  3
txt
  4
gbcbig.shx
  0
ENDTAB
  0
TABLE
  2
VIEW
  5
6
330
0
100
AcDbSymbolTable
 70
     0
  0
ENDTAB
  0
TABLE
  2
UCS
  5
7
330
0
100
AcDbSymbolTable
 70
     0
  0
ENDTAB
  0
TABLE
  2
APPID
  5
9
330
0
100
AcDbSymbolTable
 70
     1
  0
APPID
  5
12
330
9
100
AcDbSymbolTableRecord
100
AcDbRegAppTableRecord
  2
ACAD
 70
     0
  0
ENDTAB
  0
TABLE
  2
DIMSTYLE
  5
A
330
0
100
AcDbSymbolTable
 70
     1
100
AcDbDimStyleTable
 71
     0
  0
DIMSTYLE
105
27
330
A
100
AcDbSymbolTableRecord
100
AcDbDimStyleTableRecord
  2
Standard
 70
     0
340
11
  0
ENDTAB
  0
TABLE
  2
BLOCK_RECORD
  5
1
330
0
100
AcDbSymbolTable
 70
     4
  0
BLOCK_RECORD
  5
1F
330
1
100
AcDbSymbolTableRecord
100
AcDbBlockTableRecord
  2
*Model_Space
340
22
 70
     0
280
     1
281
     0
  0
BLOCK_RECORD
  5
58
330
1
100
AcDbSymbolTableRecord
100
AcDbBlockTableRecord
  2
*Paper_Space
340
59
 70
     0
280
     1
281
     0
  0
BLOCK_RECORD
  5
5D
330
1
100
AcDbSymbolTableRecord
100
AcDbBlockTableRecord
  2
*Paper_Space0
340
5E
 70
     0
280
     1
281
     0
  0
BLOCK_RECORD
  5
C8
330
1
100
AcDbSymbolTableRecord
100
AcDbBlockTableRecord
  2
*T1
340
0
 70
     0
280
     1
281
     0
  0
BLOCK_RECORD
  5
1AE
330
1
100
AcDbSymbolTableRecord
100
AcDbBlockTableRecord
  2
ttb
340
0
310
2800000020000000200000000100080000000000000400000000000000000000000000000000000000000000000080000080000000808000800000008000800080800000C0C0C000C0DCC000F0CAA6000020400000206000002080000020A0000020C0000020E00000400000004020000040400000406000004080000040A0
310
000040C0000040E00000600000006020000060400000606000006080000060A0000060C0000060E00000800000008020000080400000806000008080000080A0000080C0000080E00000A0000000A0200000A0400000A0600000A0800000A0A00000A0C00000A0E00000C0000000C0200000C0400000C0600000C0800000C0
310
A00000C0C00000C0E00000E0000000E0200000E0400000E0600000E0800000E0A00000E0C00000E0E00040000000400020004000400040006000400080004000A0004000C0004000E00040200000402020004020400040206000402080004020A0004020C0004020E000404000004040200040404000404060004040800040
310
40A0004040C0004040E00040600000406020004060400040606000406080004060A0004060C0004060E00040800000408020004080400040806000408080004080A0004080C0004080E00040A0000040A0200040A0400040A0600040A0800040A0A00040A0C00040A0E00040C0000040C0200040C0400040C0600040C08000
310
40C0A00040C0C00040C0E00040E0000040E0200040E0400040E0600040E0800040E0A00040E0C00040E0E00080000000800020008000400080006000800080008000A0008000C0008000E00080200000802020008020400080206000802080008020A0008020C0008020E00080400000804020008040400080406000804080
310
008040A0008040C0008040E00080600000806020008060400080606000806080008060A0008060C0008060E00080800000808020008080400080806000808080008080A0008080C0008080E00080A0000080A0200080A0400080A0600080A0800080A0A00080A0C00080A0E00080C0000080C0200080C0400080C0600080C0
310
800080C0A00080C0C00080C0E00080E0000080E0200080E0400080E0600080E0800080E0A00080E0C00080E0E000C0000000C0002000C0004000C0006000C0008000C000A000C000C000C000E000C0200000C0202000C0204000C0206000C0208000C020A000C020C000C020E000C0400000C0402000C0404000C0406000C0
310
408000C040A000C040C000C040E000C0600000C0602000C0604000C0606000C0608000C060A000C060C000C060E000C0800000C0802000C0804000C0806000C0808000C080A000C080C000C080E000C0A00000C0A02000C0A04000C0A06000C0A08000C0A0A000C0A0C000C0A0E000C0C00000C0C02000C0C04000C0C06000
310
C0C08000C0C0A000F0FBFF00A4A0A000808080000000FF0000FF000000FFFF00FF000000FF00FF00FFFF0000FFFFFF00FFFFFFFFFFFFFFFFFFFFFFFFFFFFFFFFFFFFFFFFFFFFFFFFFFFFFFFFFFFFFFFFFFFFFFFFFFFFFFFFFFFFFFFFFFFFFFFFFFFFFFFFFFFFFFFFFFFFFFFFFFFFFFFFFFFFFFFFFFFFFFFFFFFFFFFFFFFFFF
310
FFFFFFFFFFFFFFFFFFFFFFFFFFFFFFFFFFFFFFFFFFFFFFFFFFFFFFFFFFFFFFFFFFFFFFFFFFFFFFFFFFFFFFFFFFFFFFFFFFFFFFFFFFFFFFFFFFFFFFFFFFFFFFFFFFFFFFFFFFFFFFFFFFFFFFFFFFFFFFFFFFFFFFFFFFFFFFFFFFFFFFFFFFFFFFFFFFFFFFFFFFFFFFFFFFFFFFFFFFFFFFFFFFFFFFFFFFFFFFFFFFFFFFFFFFFFFF
310
FFFFFFFFFFFFFFFFFFFFFFFFFFFFFFFFFFFFFFFFFFFFFFFFFFFFFFFFFFFFFFFFFFFFFFFFFFFFFFFFFFFFFFFFFFFFFFFFFFFFFFFFFFFFFFFFFFFFFFFFFFFFFFFFFFFFFFFFFFFFFFFFFFFFFFFFFFFFFFFFFFFFFFFFFFFFFFFFFFFFFFFFFFFFFFFFFFFFFFFFFFFFFFFFFFFFFFFFFFFFFFFFFFFFFFFFFFFFFFFFFFFFFFFFFFFFFF
310
FFFFFFFFFFFFFFFFFFFFFFFFFFFFFFFFFFFFFFFFFFFFFFFFFFFFFFFFFFFFFFFFFFFFFFFFFFFFFFFFFFFFFFFFFFFFFFFFFFFFFFFF000000000000000000000000000000000000000000000000000000000000FFFF000000000000000000000000000000000000000000000000000000000000FFFF00FFFFFFFFFF00FFFFFFFF
310
FF00FFFFFFFF00FFFFFFFFFF00FFFFFFFFFF00FFFF000000000000000000000000000000000000000000000000000000000000FFFF000000000000000000000000000000000000000000000000000000000000FFFF000000000000000000000000000000000000000000000000000000000000FFFF00FFFFFFFFFFFFFFFFFF
310
FFFFFF00000000FFFFFFFFFFFFFFFFFFFFFFFF00FFFF000000000000000000000000000000000000000000000000000000000000FFFFFFFFFFFFFFFFFFFFFFFFFFFFFFFFFFFFFFFFFFFFFFFFFFFFFFFFFFFFFFFFFFFFFFFFFFFFFFFFFFFFFFFFFFFFFFFFFFFFFFFFFFFFFFFFFFFFFFFFFFFFFFFFFFFFFFFFFFFFFFFFFFFFFF
310
FFFFFFFFFFFFFFFFFFFFFFFFFFFFFFFFFFFFFFFFFFFFFFFFFFFFFFFFFFFFFFFFFFFFFFFFFFFFFFFFFFFFFFFFFFFFFFFFFFFFFFFFFFFFFFFFFFFFFFFFFFFFFFFFFFFFFFFFFFFFFFFFFFFFFFFFFFFFFFFFFFFFFFFFFFFFFFFFFFFFFFFFFFFFFFFFFFFFFFFFFFFFFFFFFFFFFFFFFFFFFFFFFFFFFFFFFFFFFFFFFFFFFFFFFFFFFF
310
FFFFFFFFFFFFFFFFFFFFFFFFFFFFFFFFFFFFFFFFFFFFFFFFFFFFFFFFFFFFFFFFFFFFFFFFFFFFFFFFFFFFFFFFFFFFFFFFFFFFFFFFFFFFFFFFFFFFFFFFFFFFFFFFFFFFFFFFFFFFFFFFFFFFFFFFFFFFFFFFFFFFFFFFFFFFFFFFFFFFFFFFFFFFFFFFFFFFFFFFFFFFFFFFFFFFFFFFFFFFFFFFFFFFFFFFFFFFFFFFFFFFFFFFFFFFFF
310
FFFFFFFFFFFFFFFFFFFFFFFFFFFFFFFFFFFFFFFFFFFFFFFFFFFFFFFFFFFFFFFFFFFFFFFFFFFFFFFFFFFFFFFFFFFFFFFFFFFFFFFFFFFFFFFF
102
{BLKREFS
331
1F2
102
}
 70
     1
280
     1
281
     1
  0
BLOCK_RECORD
  5
1B3
330
1
100
AcDbSymbolTableRecord
100
AcDbBlockTableRecord
  2
*T3
340
0
102
{BLKREFS
331
1B1
102
}
 70
     0
280
     1
281
     0
  0
ENDTAB
  0
ENDSEC
  0
SECTION
  2
BLOCKS
  0
BLOCK
  5
20
330
1F
100
AcDbEntity
  8
0
100
AcDbBlockBegin
  2
*Model_Space
 70
     0
 10
0.0
 20
0.0
 30
0.0
  3
*Model_Space
  1

  0
ENDBLK
  5
21
330
1F
100
AcDbEntity
  8
0
100
AcDbBlockEnd
  0
BLOCK
  5
5A
330
58
100
AcDbEntity
 67
     1
  8
0
100
AcDbBlockBegin
  2
*Paper_Space
 70
     0
 10
0.0
 20
0.0
 30
0.0
  3
*Paper_Space
  1

  0
ENDBLK
  5
5B
330
58
100
AcDbEntity
 67
     1
  8
0
100
AcDbBlockEnd
  0
BLOCK
  5
5F
330
5D
100
AcDbEntity
 67
     1
  8
0
100
AcDbBlockBegin
  2
*Paper_Space0
 70
     0
 10
0.0
 20
0.0
 30
0.0
  3
*Paper_Space0
  1

  0
ENDBLK
  5
60
330
5D
100
AcDbEntity
 67
     1
  8
0
100
AcDbBlockEnd
  0
BLOCK
  5
101
330
C8
100
AcDbEntity
  8
0
100
AcDbBlockBegin
  2
*T1
 70
     1
 10
0.0
 20
0.0
 30
0.0
  3
*T1
  1

  0
MTEXT
  5
174
330
C8
100
AcDbEntity
  8
0
 62
     0
100
AcDbMText
 10
6.25
 20
-0.3933333333333344
 30
0.0
 40
0.25
 41
12.38
 46
0.0
 71
     5
 72
     5
  1
niaho
 73
     1
 44
1.0
  0
LINE
  5
175
330
C8
100
AcDbEntity
  8
0
 62
     0
370
    -2
100
AcDbLine
 10
0.0
 20
0.0
 30
0.0
 11
2.5
 21
0.0
 31
0.0
  0
LINE
  5
176
330
C8
100
AcDbEntity
  8
0
 62
     0
370
    -2
100
AcDbLine
 10
2.5
 20
0.0
 30
0.0
 11
5.0
 21
0.0
 31
0.0
  0
LINE
  5
177
330
C8
100
AcDbEntity
  8
0
 62
     0
370
    -2
100
AcDbLine
 10
5.0
 20
0.0
 30
0.0
 11
7.5
 21
0.0
 31
0.0
  0
LINE
  5
178
330
C8
100
AcDbEntity
  8
0
 62
     0
370
    -2
100
AcDbLine
 10
7.5
 20
0.0
 30
0.0
 11
10.0
 21
0.0
 31
0.0
  0
LINE
  5
179
330
C8
100
AcDbEntity
  8
0
 62
     0
370
    -2
100
AcDbLine
 10
10.0
 20
0.0
 30
0.0
 11
12.5
 21
0.0
 31
0.0
  0
LINE
  5
17A
330
C8
100
AcDbEntity
  8
0
 62
     0
370
    -2
100
AcDbLine
 10
0.0
 20
0.0
 30
0.0
 11
0.0
 21
-0.7866666666666653
 31
0.0
  0
LINE
  5
17B
330
C8
100
AcDbEntity
  8
0
 62
     0
370
    -2
100
AcDbLine
 10
12.5
 20
0.0
 30
0.0
 11
12.5
 21
-0.7866666666666653
 31
0.0
  0
LINE
  5
17C
330
C8
100
AcDbEntity
  8
0
 62
     0
370
    -2
100
AcDbLine
 10
0.0
 20
-0.7866666666666653
 30
0.0
 11
2.5
 21
-0.7866666666666653
 31
0.0
  0
LINE
  5
17D
330
C8
100
AcDbEntity
  8
0
 62
     0
370
    -2
100
AcDbLine
 10
0.0
 20
-0.7866666666666653
 30
0.0
 11
0.0
 21
-1.386666666666666
 31
0.0
  0
LINE
  5
17E
330
C8
100
AcDbEntity
  8
0
 62
     0
370
    -2
100
AcDbLine
 10
2.5
 20
-0.7866666666666653
 30
0.0
 11
5.0
 21
-0.7866666666666653
 31
0.0
  0
LINE
  5
17F
330
C8
100
AcDbEntity
  8
0
 62
     0
370
    -2
100
AcDbLine
 10
2.5
 20
-0.7866666666666653
 30
0.0
 11
2.5
 21
-1.386666666666666
 31
0.0
  0
LINE
  5
180
330
C8
100
AcDbEntity
  8
0
 62
     0
370
    -2
100
AcDbLine
 10
5.0
 20
-0.7866666666666653
 30
0.0
 11
7.5
 21
-0.7866666666666653
 31
0.0
  0
LINE
  5
181
330
C8
100
AcDbEntity
  8
0
 62
     0
370
    -2
100
AcDbLine
 10
5.0
 20
-0.7866666666666653
 30
0.0
 11
5.0
 21
-1.386666666666666
 31
0.0
  0
LINE
  5
182
330
C8
100
AcDbEntity
  8
0
 62
     0
370
    -2
100
AcDbLine
 10
7.5
 20
-0.7866666666666653
 30
0.0
 11
10.0
 21
-0.7866666666666653
 31
0.0
  0
LINE
  5
183
330
C8
100
AcDbEntity
  8
0
 62
     0
370
    -2
100
AcDbLine
 10
7.5
 20
-0.7866666666666653
 30
0.0
 11
7.5
 21
-1.386666666666666
 31
0.0
  0
LINE
  5
184
330
C8
100
AcDbEntity
  8
0
 62
     0
370
    -2
100
AcDbLine
 10
10.0
 20
-0.7866666666666653
 30
0.0
 11
12.5
 21
-0.7866666666666653
 31
0.0
  0
LINE
  5
185
330
C8
100
AcDbEntity
  8
0
 62
     0
370
    -2
100
AcDbLine
 10
10.0
 20
-0.7866666666666653
 30
0.0
 11
10.0
 21
-1.386666666666666
 31
0.0
  0
LINE
  5
186
330
C8
100
AcDbEntity
  8
0
 62
     0
370
    -2
100
AcDbLine
 10
12.5
 20
-0.7866666666666653
 30
0.0
 11
12.5
 21
-1.386666666666666
 31
0.0
  0
LINE
  5
187
330
C8
100
AcDbEntity
  8
0
 62
     0
370
    -2
100
AcDbLine
 10
0.0
 20
-1.386666666666666
 30
0.0
 11
2.5
 21
-1.386666666666666
 31
0.0
  0
LINE
  5
188
330
C8
100
AcDbEntity
  8
0
 62
     0
370
    -2
100
AcDbLine
 10
0.0
 20
-1.386666666666666
 30
0.0
 11
0.0
 21
-1.986666666666668
 31
0.0
  0
LINE
  5
189
330
C8
100
AcDbEntity
  8
0
 62
     0
370
    -2
100
AcDbLine
 10
2.5
 20
-1.386666666666666
 30
0.0
 11
5.0
 21
-1.386666666666666
 31
0.0
  0
LINE
  5
18A
330
C8
100
AcDbEntity
  8
0
 62
     0
370
    -2
100
AcDbLine
 10
2.5
 20
-1.386666666666666
 30
0.0
 11
2.5
 21
-1.986666666666668
 31
0.0
  0
LINE
  5
18B
330
C8
100
AcDbEntity
  8
0
 62
     0
370
    -2
100
AcDbLine
 10
5.0
 20
-1.386666666666666
 30
0.0
 11
7.5
 21
-1.386666666666666
 31
0.0
  0
LINE
  5
18C
330
C8
100
AcDbEntity
  8
0
 62
     0
370
    -2
100
AcDbLine
 10
5.0
 20
-1.386666666666666
 30
0.0
 11
5.0
 21
-1.986666666666668
 31
0.0
  0
LINE
  5
18D
330
C8
100
AcDbEntity
  8
0
 62
     0
370
    -2
100
AcDbLine
 10
7.5
 20
-1.386666666666666
 30
0.0
 11
10.0
 21
-1.386666666666666
 31
0.0
  0
LINE
  5
18E
330
C8
100
AcDbEntity
  8
0
 62
     0
370
    -2
100
AcDbLine
 10
7.5
 20
-1.386666666666666
 30
0.0
 11
7.5
 21
-1.986666666666668
 31
0.0
  0
LINE
  5
18F
330
C8
100
AcDbEntity
  8
0
 62
     0
370
    -2
100
AcDbLine
 10
10.0
 20
-1.386666666666666
 30
0.0
 11
12.5
 21
-1.386666666666666
 31
0.0
  0
LINE
  5
190
330
C8
100
AcDbEntity
  8
0
 62
     0
370
    -2
100
AcDbLine
 10
10.0
 20
-1.386666666666666
 30
0.0
 11
10.0
 21
-1.986666666666668
 31
0.0
  0
LINE
  5
191
330
C8
100
AcDbEntity
  8
0
 62
     0
370
    -2
100
AcDbLine
 10
12.5
 20
-1.386666666666666
 30
0.0
 11
12.5
 21
-1.986666666666668
 31
0.0
  0
LINE
  5
192
330
C8
100
AcDbEntity
  8
0
 62
     0
370
    -2
100
AcDbLine
 10
0.0
 20
-1.986666666666668
 30
0.0
 11
2.5
 21
-1.986666666666668
 31
0.0
  0
LINE
  5
193
330
C8
100
AcDbEntity
  8
0
 62
     0
370
    -2
100
AcDbLine
 10
0.0
 20
-1.986666666666668
 30
0.0
 11
0.0
 21
-2.586666666666667
 31
0.0
  0
LINE
  5
194
330
C8
100
AcDbEntity
  8
0
 62
     0
370
    -2
100
AcDbLine
 10
2.5
 20
-1.986666666666668
 30
0.0
 11
5.0
 21
-1.986666666666668
 31
0.0
  0
LINE
  5
195
330
C8
100
AcDbEntity
  8
0
 62
     0
370
    -2
100
AcDbLine
 10
2.5
 20
-1.986666666666668
 30
0.0
 11
2.5
 21
-2.586666666666667
 31
0.0
  0
LINE
  5
196
330
C8
100
AcDbEntity
  8
0
 62
     0
370
    -2
100
AcDbLine
 10
5.0
 20
-1.986666666666668
 30
0.0
 11
7.5
 21
-1.986666666666668
 31
0.0
  0
LINE
  5
197
330
C8
100
AcDbEntity
  8
0
 62
     0
370
    -2
100
AcDbLine
 10
5.0
 20
-1.986666666666668
 30
0.0
 11
5.0
 21
-2.586666666666667
 31
0.0
  0
LINE
  5
198
330
C8
100
AcDbEntity
  8
0
 62
     0
370
    -2
100
AcDbLine
 10
7.5
 20
-1.986666666666668
 30
0.0
 11
10.0
 21
-1.986666666666668
 31
0.0
  0
LINE
  5
199
330
C8
100
AcDbEntity
  8
0
 62
     0
370
    -2
100
AcDbLine
 10
7.5
 20
-1.986666666666668
 30
0.0
 11
7.5
 21
-2.586666666666667
 31
0.0
  0
LINE
  5
19A
330
C8
100
AcDbEntity
  8
0
 62
     0
370
    -2
100
AcDbLine
 10
10.0
 20
-1.986666666666668
 30
0.0
 11
12.5
 21
-1.986666666666668
 31
0.0
  0
LINE
  5
19B
330
C8
100
AcDbEntity
  8
0
 62
     0
370
    -2
100
AcDbLine
 10
10.0
 20
-1.986666666666668
 30
0.0
 11
10.0
 21
-2.586666666666667
 31
0.0
  0
LINE
  5
19C
330
C8
100
AcDbEntity
  8
0
 62
     0
370
    -2
100
AcDbLine
 10
12.5
 20
-1.986666666666668
 30
0.0
 11
12.5
 21
-2.586666666666667
 31
0.0
  0
LINE
  5
19D
330
C8
100
AcDbEntity
  8
0
 62
     0
370
    -2
100
AcDbLine
 10
0.0
 20
-2.586666666666667
 30
0.0
 11
2.5
 21
-2.586666666666667
 31
0.0
  0
LINE
  5
19E
330
C8
100
AcDbEntity
  8
0
 62
     0
370
    -2
100
AcDbLine
 10
0.0
 20
-3.186666666666667
 30
0.0
 11
2.5
 21
-3.186666666666667
 31
0.0
  0
LINE
  5
19F
330
C8
100
AcDbEntity
  8
0
 62
     0
370
    -2
100
AcDbLine
 10
0.0
 20
-2.586666666666667
 30
0.0
 11
0.0
 21
-3.186666666666667
 31
0.0
  0
LINE
  5
1A0
330
C8
100
AcDbEntity
  8
0
 62
     0
370
    -2
100
AcDbLine
 10
2.5
 20
-2.586666666666667
 30
0.0
 11
5.0
 21
-2.586666666666667
 31
0.0
  0
LINE
  5
1A1
330
C8
100
AcDbEntity
  8
0
 62
     0
370
    -2
100
AcDbLine
 10
2.5
 20
-3.186666666666667
 30
0.0
 11
5.0
 21
-3.186666666666667
 31
0.0
  0
LINE
  5
1A2
330
C8
100
AcDbEntity
  8
0
 62
     0
370
    -2
100
AcDbLine
 10
2.5
 20
-2.586666666666667
 30
0.0
 11
2.5
 21
-3.186666666666667
 31
0.0
  0
LINE
  5
1A3
330
C8
100
AcDbEntity
  8
0
 62
     0
370
    -2
100
AcDbLine
 10
5.0
 20
-2.586666666666667
 30
0.0
 11
7.5
 21
-2.586666666666667
 31
0.0
  0
LINE
  5
1A4
330
C8
100
AcDbEntity
  8
0
 62
     0
370
    -2
100
AcDbLine
 10
5.0
 20
-3.186666666666667
 30
0.0
 11
7.5
 21
-3.186666666666667
 31
0.0
  0
LINE
  5
1A5
330
C8
100
AcDbEntity
  8
0
 62
     0
370
    -2
100
AcDbLine
 10
5.0
 20
-2.586666666666667
 30
0.0
 11
5.0
 21
-3.186666666666667
 31
0.0
  0
LINE
  5
1A6
330
C8
100
AcDbEntity
  8
0
 62
     0
370
    -2
100
AcDbLine
 10
7.5
 20
-2.586666666666667
 30
0.0
 11
10.0
 21
-2.586666666666667
 31
0.0
  0
LINE
  5
1A7
330
C8
100
AcDbEntity
  8
0
 62
     0
370
    -2
100
AcDbLine
 10
7.5
 20
-3.186666666666667
 30
0.0
 11
10.0
 21
-3.186666666666667
 31
0.0
  0
LINE
  5
1A8
330
C8
100
AcDbEntity
  8
0
 62
     0
370
    -2
100
AcDbLine
 10
7.5
 20
-2.586666666666667
 30
0.0
 11
7.5
 21
-3.186666666666667
 31
0.0
  0
LINE
  5
1A9
330
C8
100
AcDbEntity
  8
0
 62
     0
370
    -2
100
AcDbLine
 10
10.0
 20
-2.586666666666667
 30
0.0
 11
12.5
 21
-2.586666666666667
 31
0.0
  0
LINE
  5
1AA
330
C8
100
AcDbEntity
  8
0
 62
     0
370
    -2
100
AcDbLine
 10
10.0
 20
-3.186666666666667
 30
0.0
 11
12.5
 21
-3.186666666666667
 31
0.0
  0
LINE
  5
1AB
330
C8
100
AcDbEntity
  8
0
 62
     0
370
    -2
100
AcDbLine
 10
10.0
 20
-2.586666666666667
 30
0.0
 11
10.0
 21
-3.186666666666667
 31
0.0
  0
LINE
  5
1AC
330
C8
100
AcDbEntity
  8
0
 62
     0
370
    -2
100
AcDbLine
 10
12.5
 20
-2.586666666666667
 30
0.0
 11
12.5
 21
-3.186666666666667
 31
0.0
  0
ENDBLK
  5
102
330
C8
100
AcDbEntity
  8
0
100
AcDbBlockEnd
  0
BLOCK
  5
1AF
330
1AE
100
AcDbEntity
  8
0
100
AcDbBlockBegin
  2
ttb
 70
     2
 10
0.0
 20
0.0
 30
0.0
  3
ttb
  1

  0
ACAD_TABLE
  5
1B1
330
1AE
100
AcDbEntity
  8
0
 92
     6436
310
24190000AD000000880000001D000000000000000000F03F00000000000000000000000000000000E01EBDB0DA5038400000000000000000000000000000F03F000000000000000042D5BB41C444324000000000000000000000000000000000000000000000F03F0000000000000000000000000000000000000000000000
310
000000000000000000000000000000F03F0C00000016000000070000C30C00000017000000FDFFFFFFD4000000260000000000000000001740A0FC62C92F96E0BF000000000000000000000000000000000000000000000000000000000000F03F000000000000F03F000000000000000000000000000000006E0069006100
310
68006F0000000500000001000000000000000000D03F000000000000F03F0000000000000000000000000000F03F000000000000000000000000000000000000000000000000000000000100000000000000000000007400780074002E0073006800780000006700620063006200690067002E00730068007800000078000C
310
00000016000000070000C30C00000017000000FDFFFFFF54000000200000000200000000000000000000000000000000000000000000000000000000000000000004400000000000000000000000000000000000000000000000000000000000000000000000000000F03F0C00000016000000070000C30C00000017000000
310
FDFFFFFF54000000200000000200000000000000000004400000000000000000000000000000000000000000000014400000000000000000000000000000000000000000000000000000000000000000000000000000F03F0C00000016000000070000C30C00000017000000FDFFFFFF540000002000000002000000000000
310
0000001440000000000000000000000000000000000000000000001E400000000000000000000000000000000000000000000000000000000000000000000000000000F03F0C00000016000000070000C30C00000017000000FDFFFFFF5400000020000000020000000000000000001E400000000000000000000000000000
310
000000000000000024400000000000000000000000000000000000000000000000000000000000000000000000000000F03F0C00000016000000070000C30C00000017000000FDFFFFFF5400000020000000020000000000000000002440000000000000000000000000000000000000000000002940000000000000000000
310
0000000000000000000000000000000000000000000000000000000000F03F0C00000016000000070000C30C00000017000000FDFFFFFF540000002000000002000000000000000000000000000000000000000000000000000000000000000000000020F9C5925F2CE9BF0000000000000000000000000000000000000000
310
00000000000000000000F03F0C00000016000000070000C30C00000017000000FDFFFFFF540000002000000002000000000000000000294000000000000000000000000000000000000000000000294020F9C5925F2CE9BF000000000000000000000000000000000000000000000000000000000000F03F0C000000160000
310
00070000C30C00000017000000FDFFFFFF540000002000000002000000000000000000000020F9C5925F2CE9BF0000000000000000000000000000044020F9C5925F2CE9BF000000000000000000000000000000000000000000000000000000000000F03F0C00000016000000070000C30C00000017000000FDFFFFFF5400
310
00002000000002000000000000000000000020F9C5925F2CE9BF000000000000000000000000000000003096FC62C92FF6BF000000000000000000000000000000000000000000000000000000000000F03F0C00000016000000070000C30C00000017000000FDFFFFFF540000002000000002000000000000000000044020
310
F9C5925F2CE9BF0000000000000000000000000000144020F9C5925F2CE9BF000000000000000000000000000000000000000000000000000000000000F03F0C00000016000000070000C30C00000017000000FDFFFFFF540000002000000002000000000000000000044020F9C5925F2CE9BF000000000000000000000000
310
000004403096FC62C92FF6BF000000000000000000000000000000000000000000000000000000000000F03F0C00000016000000070000C30C00000017000000FDFFFFFF540000002000000002000000000000000000144020F9C5925F2CE9BF00000000000000000000000000001E4020F9C5925F2CE9BF00000000000000
310
0000000000000000000000000000000000000000000000F03F0C00000016000000070000C30C00000017000000FDFFFFFF540000002000000002000000000000000000144020F9C5925F2CE9BF000000000000000000000000000014403096FC62C92FF6BF0000000000000000000000000000000000000000000000000000
310
00000000F03F0C00000016000000070000C30C00000017000000FDFFFFFF5400000020000000020000000000000000001E4020F9C5925F2CE9BF0000000000000000000000000000244020F9C5925F2CE9BF000000000000000000000000000000000000000000000000000000000000F03F0C00000016000000070000C30C
310
00000017000000FDFFFFFF5400000020000000020000000000000000001E4020F9C5925F2CE9BF00000000000000000000000000001E403096FC62C92FF6BF000000000000000000000000000000000000000000000000000000000000F03F0C00000016000000070000C30C00000017000000FDFFFFFF5400000020000000
310
02000000000000000000244020F9C5925F2CE9BF0000000000000000000000000000294020F9C5925F2CE9BF000000000000000000000000000000000000000000000000000000000000F03F0C00000016000000070000C30C00000017000000FDFFFFFF540000002000000002000000000000000000244020F9C5925F2CE9
310
BF000000000000000000000000000024403096FC62C92FF6BF000000000000000000000000000000000000000000000000000000000000F03F0C00000016000000070000C30C00000017000000FDFFFFFF540000002000000002000000000000000000294020F9C5925F2CE9BF000000000000000000000000000029403096
310
FC62C92FF6BF000000000000000000000000000000000000000000000000000000000000F03F0C00000016000000070000C30C00000017000000FDFFFFFF54000000200000000200000000000000000000003096FC62C92FF6BF000000000000000000000000000004403096FC62C92FF6BF00000000000000000000000000
310
0000000000000000000000000000000000F03F0C00000016000000070000C30C00000017000000FDFFFFFF54000000200000000200000000000000000000003096FC62C92FF6BF00000000000000000000000000000000D02F96FC62C9FFBF000000000000000000000000000000000000000000000000000000000000F03F
310
0C00000016000000070000C30C00000017000000FDFFFFFF54000000200000000200000000000000000004403096FC62C92FF6BF000000000000000000000000000014403096FC62C92FF6BF000000000000000000000000000000000000000000000000000000000000F03F0C00000016000000070000C30C000000170000
310
00FDFFFFFF54000000200000000200000000000000000004403096FC62C92FF6BF00000000000000000000000000000440D02F96FC62C9FFBF000000000000000000000000000000000000000000000000000000000000F03F0C00000016000000070000C30C00000017000000FDFFFFFF5400000020000000020000000000
310
0000000014403096FC62C92FF6BF00000000000000000000000000001E403096FC62C92FF6BF000000000000000000000000000000000000000000000000000000000000F03F0C00000016000000070000C30C00000017000000FDFFFFFF54000000200000000200000000000000000014403096FC62C92FF6BF0000000000
310
0000000000000000001440D02F96FC62C9FFBF000000000000000000000000000000000000000000000000000000000000F03F0C00000016000000070000C30C00000017000000FDFFFFFF5400000020000000020000000000000000001E403096FC62C92FF6BF000000000000000000000000000024403096FC62C92FF6BF
310
000000000000000000000000000000000000000000000000000000000000F03F0C00000016000000070000C30C00000017000000FDFFFFFF5400000020000000020000000000000000001E403096FC62C92FF6BF00000000000000000000000000001E40D02F96FC62C9FFBF00000000000000000000000000000000000000
310
0000000000000000000000F03F0C00000016000000070000C30C00000017000000FDFFFFFF54000000200000000200000000000000000024403096FC62C92FF6BF000000000000000000000000000029403096FC62C92FF6BF000000000000000000000000000000000000000000000000000000000000F03F0C0000001600
310
0000070000C30C00000017000000FDFFFFFF54000000200000000200000000000000000024403096FC62C92FF6BF00000000000000000000000000002440D02F96FC62C9FFBF000000000000000000000000000000000000000000000000000000000000F03F0C00000016000000070000C30C00000017000000FDFFFFFF54
310
000000200000000200000000000000000029403096FC62C92FF6BF00000000000000000000000000002940D02F96FC62C9FFBF000000000000000000000000000000000000000000000000000000000000F03F0C00000016000000070000C30C00000017000000FDFFFFFF5400000020000000020000000000000000000000
310
D02F96FC62C9FFBF00000000000000000000000000000440D02F96FC62C9FFBF000000000000000000000000000000000000000000000000000000000000F03F0C00000016000000070000C30C00000017000000FDFFFFFF5400000020000000020000000000000000000000D02F96FC62C9FFBF0000000000000000000000
310
0000000000B4E4174B7EB104C0000000000000000000000000000000000000000000000000000000000000F03F0C00000016000000070000C30C00000017000000FDFFFFFF5400000020000000020000000000000000000440D02F96FC62C9FFBF00000000000000000000000000001440D02F96FC62C9FFBF000000000000
310
000000000000000000000000000000000000000000000000F03F0C00000016000000070000C30C00000017000000FDFFFFFF5400000020000000020000000000000000000440D02F96FC62C9FFBF00000000000000000000000000000440B4E4174B7EB104C000000000000000000000000000000000000000000000000000
310
0000000000F03F0C00000016000000070000C30C00000017000000FDFFFFFF5400000020000000020000000000000000001440D02F96FC62C9FFBF00000000000000000000000000001E40D02F96FC62C9FFBF000000000000000000000000000000000000000000000000000000000000F03F0C00000016000000070000C3
310
0C00000017000000FDFFFFFF5400000020000000020000000000000000001440D02F96FC62C9FFBF00000000000000000000000000001440B4E4174B7EB104C0000000000000000000000000000000000000000000000000000000000000F03F0C00000016000000070000C30C00000017000000FDFFFFFF54000000200000
310
00020000000000000000001E40D02F96FC62C9FFBF00000000000000000000000000002440D02F96FC62C9FFBF000000000000000000000000000000000000000000000000000000000000F03F0C00000016000000070000C30C00000017000000FDFFFFFF5400000020000000020000000000000000001E40D02F96FC62C9
310
FFBF00000000000000000000000000001E40B4E4174B7EB104C0000000000000000000000000000000000000000000000000000000000000F03F0C00000016000000070000C30C00000017000000FDFFFFFF5400000020000000020000000000000000002440D02F96FC62C9FFBF00000000000000000000000000002940D0
310
2F96FC62C9FFBF000000000000000000000000000000000000000000000000000000000000F03F0C00000016000000070000C30C00000017000000FDFFFFFF5400000020000000020000000000000000002440D02F96FC62C9FFBF00000000000000000000000000002440B4E4174B7EB104C0000000000000000000000000
310
000000000000000000000000000000000000F03F0C00000016000000070000C30C00000017000000FDFFFFFF5400000020000000020000000000000000002940D02F96FC62C9FFBF00000000000000000000000000002940B4E4174B7EB104C0000000000000000000000000000000000000000000000000000000000000F0
310
3F0C00000016000000070000C30C00000017000000FDFFFFFF5400000020000000020000000000000000000000B4E4174B7EB104C000000000000000000000000000000440B4E4174B7EB104C0000000000000000000000000000000000000000000000000000000000000F03F0C00000016000000070000C30C0000001700
310
0000FDFFFFFF540000002000000002000000000000000000000080B1E4174B7E09C00000000000000000000000000000044080B1E4174B7E09C0000000000000000000000000000000000000000000000000000000000000F03F0C00000016000000070000C30C00000017000000FDFFFFFF54000000200000000200000000
310
00000000000000B4E4174B7EB104C00000000000000000000000000000000080B1E4174B7E09C0000000000000000000000000000000000000000000000000000000000000F03F0C00000016000000070000C30C00000017000000FDFFFFFF5400000020000000020000000000000000000440B4E4174B7EB104C000000000
310
000000000000000000001440B4E4174B7EB104C0000000000000000000000000000000000000000000000000000000000000F03F0C00000016000000070000C30C00000017000000FDFFFFFF540000002000000002000000000000000000044080B1E4174B7E09C00000000000000000000000000000144080B1E4174B7E09
310
C0000000000000000000000000000000000000000000000000000000000000F03F0C00000016000000070000C30C00000017000000FDFFFFFF5400000020000000020000000000000000000440B4E4174B7EB104C00000000000000000000000000000044080B1E4174B7E09C0000000000000000000000000000000000000
310
000000000000000000000000F03F0C00000016000000070000C30C00000017000000FDFFFFFF5400000020000000020000000000000000001440B4E4174B7EB104C000000000000000000000000000001E40B4E4174B7EB104C0000000000000000000000000000000000000000000000000000000000000F03F0C00000016
310
000000070000C30C00000017000000FDFFFFFF540000002000000002000000000000000000144080B1E4174B7E09C000000000000000000000000000001E4080B1E4174B7E09C0000000000000000000000000000000000000000000000000000000000000F03F0C00000016000000070000C30C00000017000000FDFFFFFF
310
5400000020000000020000000000000000001440B4E4174B7EB104C00000000000000000000000000000144080B1E4174B7E09C0000000000000000000000000000000000000000000000000000000000000F03F0C00000016000000070000C30C00000017000000FDFFFFFF5400000020000000020000000000000000001E
310
40B4E4174B7EB104C000000000000000000000000000002440B4E4174B7EB104C0000000000000000000000000000000000000000000000000000000000000F03F0C00000016000000070000C30C00000017000000FDFFFFFF5400000020000000020000000000000000001E4080B1E4174B7E09C000000000000000000000
310
00000000244080B1E4174B7E09C0000000000000000000000000000000000000000000000000000000000000F03F0C00000016000000070000C30C00000017000000FDFFFFFF5400000020000000020000000000000000001E40B4E4174B7EB104C000000000000000000000000000001E4080B1E4174B7E09C00000000000
310
00000000000000000000000000000000000000000000000000F03F0C00000016000000070000C30C00000017000000FDFFFFFF5400000020000000020000000000000000002440B4E4174B7EB104C000000000000000000000000000002940B4E4174B7EB104C0000000000000000000000000000000000000000000000000
310
000000000000F03F0C00000016000000070000C30C00000017000000FDFFFFFF540000002000000002000000000000000000244080B1E4174B7E09C00000000000000000000000000000294080B1E4174B7E09C0000000000000000000000000000000000000000000000000000000000000F03F0C00000016000000070000
310
C30C00000017000000FDFFFFFF5400000020000000020000000000000000002440B4E4174B7EB104C00000000000000000000000000000244080B1E4174B7E09C0000000000000000000000000000000000000000000000000000000000000F03F0C00000016000000070000C30C00000017000000FDFFFFFF540000002000
310
0000020000000000000000002940B4E4174B7EB104C00000000000000000000000000000294080B1E4174B7E09C0000000000000000000000000000000000000000000000000000000000000F03F080000001F000000
100
AcDbBlockReference
  2
*T3
 10
24.31583695046618
 20
18.26861964069145
 30
0.0
100
AcDbTable
342
87
343
1B3
 11
1.0
 21
0.0
 31
0.0
 90
       22
 91
        5
 92
        5
 93
        0
 94
        0
 95
        0
 96
        0
141
0.7866666666666667
141
0.6
141
0.6
141
0.6
141
0.6
142
2.5
142
2.5
142
2.5
142
2.5
142
2.5
171
     1
172
     0
173
     0
174
     0
175
     5
176
     1
 91
   262144
178
     0
145
0.0
 92
        0
301
CELL_VALUE
 93
        6
 90
        4
  1
niaho
 94
        0
300

302
niaho
304
ACVALUE_END
171
     1
172
     0
173
     1
174
     0
175
     1
176
     1
 91
        0
178
     0
145
0.0
 92
        0
301
CELL_VALUE
 93
        3
 90
      512
 94
        0
300

302

304
ACVALUE_END
171
     1
172
     0
173
     1
174
     0
175
     1
176
     1
 91
        0
178
     0
145
0.0
 92
        0
301
CELL_VALUE
 93
        3
 90
      512
 94
        0
300

302

304
ACVALUE_END
171
     1
172
     0
173
     1
174
     0
175
     1
176
     1
 91
        0
178
     0
145
0.0
 92
        0
301
CELL_VALUE
 93
        3
 90
      512
 94
        0
300

302

304
ACVALUE_END
171
     1
172
     0
173
     1
174
     0
175
     1
176
     1
 91
        0
178
     0
145
0.0
 92
        0
301
CELL_VALUE
 93
        3
 90
      512
 94
        0
300

302

304
ACVALUE_END
171
     1
172
     0
173
     0
174
     0
175
     1
176
     1
 91
        0
178
     0
145
0.0
 92
        0
301
CELL_VALUE
 93
        7
 90
      512
 94
        0
300

302

304
ACVALUE_END
171
     1
172
     0
173
     0
174
     0
175
     1
176
     1
 91
        0
178
     0
145
0.0
 92
        0
301
CELL_VALUE
 93
        7
 90
      512
 94
        0
300

302

304
ACVALUE_END
171
     1
172
     0
173
     0
174
     0
175
     1
176
     1
 91
        0
178
     0
145
0.0
 92
        0
301
CELL_VALUE
 93
        7
 90
      512
 94
        0
300

302

304
ACVALUE_END
171
     1
172
     0
173
     0
174
     0
175
     1
176
     1
 91
        0
178
     0
145
0.0
 92
        0
301
CELL_VALUE
 93
        7
 90
      512
 94
        0
300

302

304
ACVALUE_END
171
     1
172
     0
173
     0
174
     0
175
     1
176
     1
 91
        0
178
     0
145
0.0
 92
        0
301
CELL_VALUE
 93
        7
 90
      512
 94
        0
300

302

304
ACVALUE_END
171
     1
172
     0
173
     0
174
     0
175
     1
176
     1
 91
        0
178
     0
145
0.0
 92
        0
301
CELL_VALUE
 93
        7
 90
      512
 94
        0
300

302

304
ACVALUE_END
171
     1
172
     0
173
     0
174
     0
175
     1
176
     1
 91
        0
178
     0
145
0.0
 92
        0
301
CELL_VALUE
 93
        7
 90
      512
 94
        0
300

302

304
ACVALUE_END
171
     1
172
     0
173
     0
174
     0
175
     1
176
     1
 91
        0
178
     0
145
0.0
 92
        0
301
CELL_VALUE
 93
        7
 90
      512
 94
        0
300

302

304
ACVALUE_END
171
     1
172
     0
173
     0
174
     0
175
     1
176
     1
 91
        0
178
     0
145
0.0
 92
        0
301
CELL_VALUE
 93
        7
 90
      512
 94
        0
300

302

304
ACVALUE_END
171
     1
172
     0
173
     0
174
     0
175
     1
176
     1
 91
        0
178
     0
145
0.0
 92
        0
301
CELL_VALUE
 93
        7
 90
      512
 94
        0
300

302

304
ACVALUE_END
171
     1
172
     0
173
     0
174
     0
175
     1
176
     1
 91
        0
178
     0
145
0.0
 92
        0
301
CELL_VALUE
 93
        7
 90
      512
 94
        0
300

302

304
ACVALUE_END
171
     1
172
     0
173
     0
174
     0
175
     1
176
     1
 91
        0
178
     0
145
0.0
 92
        0
301
CELL_VALUE
 93
        7
 90
      512
 94
        0
300

302

304
ACVALUE_END
171
     1
172
     0
173
     0
174
     0
175
     1
176
     1
 91
        0
178
     0
145
0.0
 92
        0
301
CELL_VALUE
 93
        7
 90
      512
 94
        0
300

302

304
ACVALUE_END
171
     1
172
     0
173
     0
174
     0
175
     1
176
     1
 91
        0
178
     0
145
0.0
 92
        0
301
CELL_VALUE
 93
        7
 90
      512
 94
        0
300

302

304
ACVALUE_END
171
     1
172
     0
173
     0
174
     0
175
     1
176
     1
 91
        0
178
     0
145
0.0
 92
        0
301
CELL_VALUE
 93
        7
 90
      512
 94
        0
300

302

304
ACVALUE_END
171
     1
172
     0
173
     0
174
     0
175
     1
176
     1
 91
        0
178
     0
145
0.0
 92
        0
301
CELL_VALUE
 93
        7
 90
      512
 94
        0
300

302

304
ACVALUE_END
171
     1
172
     0
173
     0
174
     0
175
     1
176
     1
 91
        0
178
     0
145
0.0
 92
        0
301
CELL_VALUE
 93
        7
 90
      512
 94
        0
300

302

304
ACVALUE_END
171
     1
172
     0
173
     0
174
     0
175
     1
176
     1
 91
        0
178
     0
145
0.0
 92
        0
301
CELL_VALUE
 93
        7
 90
      512
 94
        0
300

302

304
ACVALUE_END
171
     1
172
     0
173
     0
174
     0
175
     1
176
     1
 91
        0
178
     0
145
0.0
 92
        0
301
CELL_VALUE
 93
        7
 90
      512
 94
        0
300

302

304
ACVALUE_END
171
     1
172
     0
173
     0
174
     0
175
     1
176
     1
 91
        0
178
     0
145
0.0
 92
        0
301
CELL_VALUE
 93
        7
 90
      512
 94
        0
300

302

304
ACVALUE_END
  0
ATTDEF
  5
1B2
330
1AE
100
AcDbEntity
  8
0
100
AcDbText
 10
24.84765353021334
 20
17.08809497409128
 30
0.0
 40
0.2
  1
value
100
AcDbAttributeDefinition
  3
tishi
  2
BIAOJI
 70
     0
280
     1
  0
ENDBLK
  5
1B0
330
1AE
100
AcDbEntity
  8
0
100
AcDbBlockEnd
  0
BLOCK
  5
1ED
330
1B3
100
AcDbEntity
  8
0
100
AcDbBlockBegin
  2
*T3
 70
     1
 10
0.0
 20
0.0
 30
0.0
  3
*T3
  1

  0
MTEXT
  5
1B4
330
1B3
100
AcDbEntity
  8
0
 62
     0
100
AcDbMText
 10
6.25
 20
-0.3933333333333344
 30
0.0
 40
0.25
 41
12.38
 46
0.0
 71
     5
 72
     5
  1
niaho
 73
     1
 44
1.0
  0
LINE
  5
1B5
330
1B3
100
AcDbEntity
  8
0
 62
     0
370
    -2
100
AcDbLine
 10
0.0
 20
0.0
 30
0.0
 11
2.5
 21
0.0
 31
0.0
  0
LINE
  5
1B6
330
1B3
100
AcDbEntity
  8
0
 62
     0
370
    -2
100
AcDbLine
 10
2.5
 20
0.0
 30
0.0
 11
5.0
 21
0.0
 31
0.0
  0
LINE
  5
1B7
330
1B3
100
AcDbEntity
  8
0
 62
     0
370
    -2
100
AcDbLine
 10
5.0
 20
0.0
 30
0.0
 11
7.5
 21
0.0
 31
0.0
  0
LINE
  5
1B8
330
1B3
100
AcDbEntity
  8
0
 62
     0
370
    -2
100
AcDbLine
 10
7.5
 20
0.0
 30
0.0
 11
10.0
 21
0.0
 31
0.0
  0
LINE
  5
1B9
330
1B3
100
AcDbEntity
  8
0
 62
     0
370
    -2
100
AcDbLine
 10
10.0
 20
0.0
 30
0.0
 11
12.5
 21
0.0
 31
0.0
  0
LINE
  5
1BA
330
1B3
100
AcDbEntity
  8
0
 62
     0
370
    -2
100
AcDbLine
 10
0.0
 20
0.0
 30
0.0
 11
0.0
 21
-0.7866666666666653
 31
0.0
  0
LINE
  5
1BB
330
1B3
100
AcDbEntity
  8
0
 62
     0
370
    -2
100
AcDbLine
 10
12.5
 20
0.0
 30
0.0
 11
12.5
 21
-0.7866666666666653
 31
0.0
  0
LINE
  5
1BC
330
1B3
100
AcDbEntity
  8
0
 62
     0
370
    -2
100
AcDbLine
 10
0.0
 20
-0.7866666666666653
 30
0.0
 11
2.5
 21
-0.7866666666666653
 31
0.0
  0
LINE
  5
1BD
330
1B3
100
AcDbEntity
  8
0
 62
     0
370
    -2
100
AcDbLine
 10
0.0
 20
-0.7866666666666653
 30
0.0
 11
0.0
 21
-1.386666666666666
 31
0.0
  0
LINE
  5
1BE
330
1B3
100
AcDbEntity
  8
0
 62
     0
370
    -2
100
AcDbLine
 10
2.5
 20
-0.7866666666666653
 30
0.0
 11
5.0
 21
-0.7866666666666653
 31
0.0
  0
LINE
  5
1BF
330
1B3
100
AcDbEntity
  8
0
 62
     0
370
    -2
100
AcDbLine
 10
2.5
 20
-0.7866666666666653
 30
0.0
 11
2.5
 21
-1.386666666666666
 31
0.0
  0
LINE
  5
1C0
330
1B3
100
AcDbEntity
  8
0
 62
     0
370
    -2
100
AcDbLine
 10
5.0
 20
-0.7866666666666653
 30
0.0
 11
7.5
 21
-0.7866666666666653
 31
0.0
  0
LINE
  5
1C1
330
1B3
100
AcDbEntity
  8
0
 62
     0
370
    -2
100
AcDbLine
 10
5.0
 20
-0.7866666666666653
 30
0.0
 11
5.0
 21
-1.386666666666666
 31
0.0
  0
LINE
  5
1C2
330
1B3
100
AcDbEntity
  8
0
 62
     0
370
    -2
100
AcDbLine
 10
7.5
 20
-0.7866666666666653
 30
0.0
 11
10.0
 21
-0.7866666666666653
 31
0.0
  0
LINE
  5
1C3
330
1B3
100
AcDbEntity
  8
0
 62
     0
370
    -2
100
AcDbLine
 10
7.5
 20
-0.7866666666666653
 30
0.0
 11
7.5
 21
-1.386666666666666
 31
0.0
  0
LINE
  5
1C4
330
1B3
100
AcDbEntity
  8
0
 62
     0
370
    -2
100
AcDbLine
 10
10.0
 20
-0.7866666666666653
 30
0.0
 11
12.5
 21
-0.7866666666666653
 31
0.0
  0
LINE
  5
1C5
330
1B3
100
AcDbEntity
  8
0
 62
     0
370
    -2
100
AcDbLine
 10
10.0
 20
-0.7866666666666653
 30
0.0
 11
10.0
 21
-1.386666666666666
 31
0.0
  0
LINE
  5
1C6
330
1B3
100
AcDbEntity
  8
0
 62
     0
370
    -2
100
AcDbLine
 10
12.5
 20
-0.7866666666666653
 30
0.0
 11
12.5
 21
-1.386666666666666
 31
0.0
  0
LINE
  5
1C7
330
1B3
100
AcDbEntity
  8
0
 62
     0
370
    -2
100
AcDbLine
 10
0.0
 20
-1.386666666666666
 30
0.0
 11
2.5
 21
-1.386666666666666
 31
0.0
  0
LINE
  5
1C8
330
1B3
100
AcDbEntity
  8
0
 62
     0
370
    -2
100
AcDbLine
 10
0.0
 20
-1.386666666666666
 30
0.0
 11
0.0
 21
-1.986666666666668
 31
0.0
  0
LINE
  5
1C9
330
1B3
100
AcDbEntity
  8
0
 62
     0
370
    -2
100
AcDbLine
 10
2.5
 20
-1.386666666666666
 30
0.0
 11
5.0
 21
-1.386666666666666
 31
0.0
  0
LINE
  5
1CA
330
1B3
100
AcDbEntity
  8
0
 62
     0
370
    -2
100
AcDbLine
 10
2.5
 20
-1.386666666666666
 30
0.0
 11
2.5
 21
-1.986666666666668
 31
0.0
  0
LINE
  5
1CB
330
1B3
100
AcDbEntity
  8
0
 62
     0
370
    -2
100
AcDbLine
 10
5.0
 20
-1.386666666666666
 30
0.0
 11
7.5
 21
-1.386666666666666
 31
0.0
  0
LINE
  5
1CC
330
1B3
100
AcDbEntity
  8
0
 62
     0
370
    -2
100
AcDbLine
 10
5.0
 20
-1.386666666666666
 30
0.0
 11
5.0
 21
-1.986666666666668
 31
0.0
  0
LINE
  5
1CD
330
1B3
100
AcDbEntity
  8
0
 62
     0
370
    -2
100
AcDbLine
 10
7.5
 20
-1.386666666666666
 30
0.0
 11
10.0
 21
-1.386666666666666
 31
0.0
  0
LINE
  5
1CE
330
1B3
100
AcDbEntity
  8
0
 62
     0
370
    -2
100
AcDbLine
 10
7.5
 20
-1.386666666666666
 30
0.0
 11
7.5
 21
-1.986666666666668
 31
0.0
  0
LINE
  5
1CF
330
1B3
100
AcDbEntity
  8
0
 62
     0
370
    -2
100
AcDbLine
 10
10.0
 20
-1.386666666666666
 30
0.0
 11
12.5
 21
-1.386666666666666
 31
0.0
  0
LINE
  5
1D0
330
1B3
100
AcDbEntity
  8
0
 62
     0
370
    -2
100
AcDbLine
 10
10.0
 20
-1.386666666666666
 30
0.0
 11
10.0
 21
-1.986666666666668
 31
0.0
  0
LINE
  5
1D1
330
1B3
100
AcDbEntity
  8
0
 62
     0
370
    -2
100
AcDbLine
 10
12.5
 20
-1.386666666666666
 30
0.0
 11
12.5
 21
-1.986666666666668
 31
0.0
  0
LINE
  5
1D2
330
1B3
100
AcDbEntity
  8
0
 62
     0
370
    -2
100
AcDbLine
 10
0.0
 20
-1.986666666666668
 30
0.0
 11
2.5
 21
-1.986666666666668
 31
0.0
  0
LINE
  5
1D3
330
1B3
100
AcDbEntity
  8
0
 62
     0
370
    -2
100
AcDbLine
 10
0.0
 20
-1.986666666666668
 30
0.0
 11
0.0
 21
-2.586666666666667
 31
0.0
  0
LINE
  5
1D4
330
1B3
100
AcDbEntity
  8
0
 62
     0
370
    -2
100
AcDbLine
 10
2.5
 20
-1.986666666666668
 30
0.0
 11
5.0
 21
-1.986666666666668
 31
0.0
  0
LINE
  5
1D5
330
1B3
100
AcDbEntity
  8
0
 62
     0
370
    -2
100
AcDbLine
 10
2.5
 20
-1.986666666666668
 30
0.0
 11
2.5
 21
-2.586666666666667
 31
0.0
  0
LINE
  5
1D6
330
1B3
100
AcDbEntity
  8
0
 62
     0
370
    -2
100
AcDbLine
 10
5.0
 20
-1.986666666666668
 30
0.0
 11
7.5
 21
-1.986666666666668
 31
0.0
  0
LINE
  5
1D7
330
1B3
100
AcDbEntity
  8
0
 62
     0
370
    -2
100
AcDbLine
 10
5.0
 20
-1.986666666666668
 30
0.0
 11
5.0
 21
-2.586666666666667
 31
0.0
  0
LINE
  5
1D8
330
1B3
100
AcDbEntity
  8
0
 62
     0
370
    -2
100
AcDbLine
 10
7.5
 20
-1.986666666666668
 30
0.0
 11
10.0
 21
-1.986666666666668
 31
0.0
  0
LINE
  5
1D9
330
1B3
100
AcDbEntity
  8
0
 62
     0
370
    -2
100
AcDbLine
 10
7.5
 20
-1.986666666666668
 30
0.0
 11
7.5
 21
-2.586666666666667
 31
0.0
  0
LINE
  5
1DA
330
1B3
100
AcDbEntity
  8
0
 62
     0
370
    -2
100
AcDbLine
 10
10.0
 20
-1.986666666666668
 30
0.0
 11
12.5
 21
-1.986666666666668
 31
0.0
  0
LINE
  5
1DB
330
1B3
100
AcDbEntity
  8
0
 62
     0
370
    -2
100
AcDbLine
 10
10.0
 20
-1.986666666666668
 30
0.0
 11
10.0
 21
-2.586666666666667
 31
0.0
  0
LINE
  5
1DC
330
1B3
100
AcDbEntity
  8
0
 62
     0
370
    -2
100
AcDbLine
 10
12.5
 20
-1.986666666666668
 30
0.0
 11
12.5
 21
-2.586666666666667
 31
0.0
  0
LINE
  5
1DD
330
1B3
100
AcDbEntity
  8
0
 62
     0
370
    -2
100
AcDbLine
 10
0.0
 20
-2.586666666666667
 30
0.0
 11
2.5
 21
-2.586666666666667
 31
0.0
  0
LINE
  5
1DE
330
1B3
100
AcDbEntity
  8
0
 62
     0
370
    -2
100
AcDbLine
 10
0.0
 20
-3.186666666666667
 30
0.0
 11
2.5
 21
-3.186666666666667
 31
0.0
  0
LINE
  5
1DF
330
1B3
100
AcDbEntity
  8
0
 62
     0
370
    -2
100
AcDbLine
 10
0.0
 20
-2.586666666666667
 30
0.0
 11
0.0
 21
-3.186666666666667
 31
0.0
  0
LINE
  5
1E0
330
1B3
100
AcDbEntity
  8
0
 62
     0
370
    -2
100
AcDbLine
 10
2.5
 20
-2.586666666666667
 30
0.0
 11
5.0
 21
-2.586666666666667
 31
0.0
  0
LINE
  5
1E1
330
1B3
100
AcDbEntity
  8
0
 62
     0
370
    -2
100
AcDbLine
 10
2.5
 20
-3.186666666666667
 30
0.0
 11
5.0
 21
-3.186666666666667
 31
0.0
  0
LINE
  5
1E2
330
1B3
100
AcDbEntity
  8
0
 62
     0
370
    -2
100
AcDbLine
 10
2.5
 20
-2.586666666666667
 30
0.0
 11
2.5
 21
-3.186666666666667
 31
0.0
  0
LINE
  5
1E3
330
1B3
100
AcDbEntity
  8
0
 62
     0
370
    -2
100
AcDbLine
 10
5.0
 20
-2.586666666666667
 30
0.0
 11
7.5
 21
-2.586666666666667
 31
0.0
  0
LINE
  5
1E4
330
1B3
100
AcDbEntity
  8
0
 62
     0
370
    -2
100
AcDbLine
 10
5.0
 20
-3.186666666666667
 30
0.0
 11
7.5
 21
-3.186666666666667
 31
0.0
  0
LINE
  5
1E5
330
1B3
100
AcDbEntity
  8
0
 62
     0
370
    -2
100
AcDbLine
 10
5.0
 20
-2.586666666666667
 30
0.0
 11
5.0
 21
-3.186666666666667
 31
0.0
  0
LINE
  5
1E6
330
1B3
100
AcDbEntity
  8
0
 62
     0
370
    -2
100
AcDbLine
 10
7.5
 20
-2.586666666666667
 30
0.0
 11
10.0
 21
-2.586666666666667
 31
0.0
  0
LINE
  5
1E7
330
1B3
100
AcDbEntity
  8
0
 62
     0
370
    -2
100
AcDbLine
 10
7.5
 20
-3.186666666666667
 30
0.0
 11
10.0
 21
-3.186666666666667
 31
0.0
  0
LINE
  5
1E8
330
1B3
100
AcDbEntity
  8
0
 62
     0
370
    -2
100
AcDbLine
 10
7.5
 20
-2.586666666666667
 30
0.0
 11
7.5
 21
-3.186666666666667
 31
0.0
  0
LINE
  5
1E9
330
1B3
100
AcDbEntity
  8
0
 62
     0
370
    -2
100
AcDbLine
 10
10.0
 20
-2.586666666666667
 30
0.0
 11
12.5
 21
-2.586666666666667
 31
0.0
  0
LINE
  5
1EA
330
1B3
100
AcDbEntity
  8
0
 62
     0
370
    -2
100
AcDbLine
 10
10.0
 20
-3.186666666666667
 30
0.0
 11
12.5
 21
-3.186666666666667
 31
0.0
  0
LINE
  5
1EB
330
1B3
100
AcDbEntity
  8
0
 62
     0
370
    -2
100
AcDbLine
 10
10.0
 20
-2.586666666666667
 30
0.0
 11
10.0
 21
-3.186666666666667
 31
0.0
  0
LINE
  5
1EC
330
1B3
100
AcDbEntity
  8
0
 62
     0
370
    -2
100
AcDbLine
 10
12.5
 20
-2.586666666666667
 30
0.0
 11
12.5
 21
-3.186666666666667
 31
0.0
  0
ENDBLK
  5
1EE
330
1B3
100
AcDbEntity
  8
0
100
AcDbBlockEnd
  0
ENDSEC
  0
SECTION
  2
ENTITIES
  0
INSERT
  5
1F2
330
1F
100
AcDbEntity
  8
0
100
AcDbBlockReference
 66
     1
  2
ttb
 10
9.123146616953675
 20
-5.334891758383214
 30
0.0
  0
ATTRIB
  5
1F3
330
1F2
100
AcDbEntity
  8
0
100
AcDbText
 10
33.97080014716701
 20
11.75320321570807
 30
0.0
 40
0.2
  1
nihaome
100
AcDbAttribute
  2
BIAOJI
 70
     0
280
     1
  0
SEQEND
  5
1F4
330
1F2
100
AcDbEntity
  8
0
  0
ENDSEC
  0
SECTION
  2
OBJECTS
  0
DICTIONARY
  5
C
330
0
100
AcDbDictionary
281
     1
  3
ACAD_COLOR
350
73
  3
ACAD_GROUP
350
D
  3
ACAD_LAYOUT
350
1A
  3
ACAD_MATERIAL
350
72
  3
ACAD_MLINESTYLE
350
17
  3
ACAD_PLOTSETTINGS
350
19
  3
ACAD_PLOTSTYLENAME
350
E
  3
ACAD_TABLESTYLE
350
86
  3
ACAD_VISUALSTYLE
350
97
  3
AcDbVariableDictionary
350
66
  0
DICTIONARY
  5
73
102
{ACAD_REACTORS
330
C
102
}
330
C
100
AcDbDictionary
281
     1
  0
DICTIONARY
  5
D
102
{ACAD_REACTORS
330
C
102
}
330
C
100
AcDbDictionary
281
     1
  0
DICTIONARY
  5
1A
102
{ACAD_REACTORS
330
C
102
}
330
C
100
AcDbDictionary
281
     1
  3
Model
350
22
  3
1
350
59
  3
2
350
5E
  0
DICTIONARY
  5
72
102
{ACAD_REACTORS
330
C
102
}
330
C
100
AcDbDictionary
281
     1
  3
ByBlock
350
95
  3
ByLayer
350
94
  3
Global
350
96
  0
DICTIONARY
  5
17
102
{ACAD_REACTORS
330
C
102
}
330
C
100
AcDbDictionary
281
     1
  3
Standard
350
18
  0
DICTIONARY
  5
19
102
{ACAD_REACTORS
330
C
102
}
330
C
100
AcDbDictionary
281
     1
  0
ACDBDICTIONARYWDFLT
  5
E
102
{ACAD_REACTORS
330
C
102
}
330
C
100
AcDbDictionary
281
     1
  3
Normal
350
F
100
AcDbDictionaryWithDefault
340
F
  0
DICTIONARY
  5
86
102
{ACAD_REACTORS
330
C
102
}
330
C
100
AcDbDictionary
281
     1
  3
Standard
350
87
  0
DICTIONARY
  5
97
102
{ACAD_REACTORS
330
C
102
}
330
C
100
AcDbDictionary
281
     1
  3
2dWireframe
350
9D
  3
3D Hidden
350
9F
  3
3dWireframe
350
9E
  3
Basic
350
9C
  3
Brighten
350
A3
  3
ColorChange
350
A7
  3
Conceptual
350
A0
  3
Dim
350
A2
  3
Facepattern
350
A6
  3
Flat
350
98
  3
FlatWithEdges
350
99
  3
Gouraud
350
9A
  3
GouraudWithEdges
350
9B
  3
Linepattern
350
A5
  3
Realistic
350
A1
  3
Thicken
350
A4
  0
DICTIONARY
  5
66
102
{ACAD_REACTORS
330
C
102
}
330
C
100
AcDbDictionary
281
     1
  3
CTABLESTYLE
350
8B
  3
DIMASSOC
350
67
  3
HIDETEXT
350
6B
  0
LAYOUT
  5
22
102
{ACAD_REACTORS
330
1A
102
}
330
1A
100
AcDbPlotSettings
  1

  2
none_device
  4
ANSI_A_(8.50_x_11.00_Inches)
  6

 40
6.349999904632567
 41
19.04999923706055
 42
6.350006103515625
 43
19.04998779296875
 44
215.8999938964844
 45
279.3999938964844
 46
0.0
 47
0.0
 48
0.0
 49
0.0
140
0.0
141
0.0
142
1.0
143
2.584895464708373
 70
 11952
 72
     0
 73
     1
 74
     0
  7

 75
     0
147
0.3868628397755418
 76
     0
 77
     2
 78
   300
148
0.0
149
0.0
100
AcDbLayout
  1
Model
 70
     1
 71
     0
 10
0.0
 20
0.0
 11
12.0
 21
9.0
 12
0.0
 22
0.0
 32
0.0
 14
0.0
 24
0.0
 34
0.0
 15
0.0
 25
0.0
 35
0.0
146
0.0
 13
0.0
 23
0.0
 33
0.0
 16
1.0
 26
0.0
 36
0.0
 17
0.0
 27
1.0
 37
0.0
 76
     0
330
1F
331
92
  0
LAYOUT
  5
59
102
{ACAD_REACTORS
330
1A
102
}
330
1A
100
AcDbPlotSettings
  1

  2
None
  4

  6

 40
0.0
 41
0.0
 42
0.0
 43
0.0
 44
0.0
 45
0.0
 46
0.0
 47
0.0
 48
0.0
 49
0.0
140
0.0
141
0.0
142
1.0
143
1.0
 70
   688
 72
     0
 73
     0
 74
     5
  7

 75
    16
147
1.0
 76
     0
 77
     2
 78
   300
148
0.0
149
0.0
100
AcDbLayout
  1
1
 70
     1
 71
     1
 10
0.0
 20
0.0
 11
12.0
 21
9.0
 12
0.0
 22
0.0
 32
0.0
 14
0.0
 24
0.0
 34
0.0
 15
0.0
 25
0.0
 35
0.0
146
0.0
 13
0.0
 23
0.0
 33
0.0
 16
1.0
 26
0.0
 36
0.0
 17
0.0
 27
1.0
 37
0.0
 76
     0
330
58
  0
LAYOUT
  5
5E
102
{ACAD_REACTORS
330
1A
102
}
330
1A
100
AcDbPlotSettings
  1

  2
None
  4

  6

 40
0.0
 41
0.0
 42
0.0
 43
0.0
 44
0.0
 45
0.0
 46
0.0
 47
0.0
 48
0.0
 49
0.0
140
0.0
141
0.0
142
1.0
143
1.0
 70
   688
 72
     0
 73
     0
 74
     5
  7

 75
    16
147
1.0
 76
     0
 77
     2
 78
   300
148
0.0
149
0.0
100
AcDbLayout
  1
2
 70
     1
 71
     2
 10
0.0
 20
0.0
 11
12.0
 21
9.0
 12
0.0
 22
0.0
 32
0.0
 14
0.0
 24
0.0
 34
0.0
 15
0.0
 25
0.0
 35
0.0
146
0.0
 13
0.0
 23
0.0
 33
0.0
 16
1.0
 26
0.0
 36
0.0
 17
0.0
 27
1.0
 37
0.0
 76
     0
330
5D
  0
MATERIAL
  5
95
102
{ACAD_REACTORS
330
72
102
}
330
72
100
AcDbMaterial
  1
ByBlock
  0
MATERIAL
  5
94
102
{ACAD_REACTORS
330
72
102
}
330
72
100
AcDbMaterial
  1
ByLayer
  0
MATERIAL
  5
96
102
{ACAD_REACTORS
330
72
102
}
330
72
100
AcDbMaterial
  1
Global
  0
MLINESTYLE
  5
18
102
{ACAD_REACTORS
330
17
102
}
330
17
100
AcDbMlineStyle
  2
STANDARD
 70
     0
  3

 62
   256
 51
90.0
 52
90.0
 71
     2
 49
0.5
 62
   256
  6
BYLAYER
 49
-0.5
 62
   256
  6
BYLAYER
  0
ACDBPLACEHOLDER
  5
F
102
{ACAD_REACTORS
330
E
102
}
330
E
  0
TABLESTYLE
  5
87
102
{ACAD_REACTORS
330
86
330
1B1
102
}
330
86
100
AcDbTableStyle
  3
Standard
 70
     0
 71
     0
 40
0.06
 41
0.06
280
     0
281
     0
  7
Standard
140
0.18
170
     2
 62
     0
 63
     7
283
     0
 90
      512
 91
        0
  1

274
    -2
284
     1
 64
     0
275
    -2
285
     1
 65
     0
276
    -2
286
     1
 66
     0
277
    -2
287
     1
 67
     0
278
    -2
288
     1
 68
     0
279
    -2
289
     1
 69
     0
  7
Standard
140
0.25
170
     5
 62
     0
 63
     7
283
     0
 90
      512
 91
        0
  1

274
    -2
284
     1
 64
     0
275
    -2
285
     1
 65
     0
276
    -2
286
     1
 66
     0
277
    -2
287
     1
 67
     0
278
    -2
288
     1
 68
     0
279
    -2
289
     1
 69
     0
  7
Standard
140
0.18
170
     5
 62
     0
 63
     7
283
     0
 90
      512
 91
        0
  1

274
    -2
284
     1
 64
     0
275
    -2
285
     1
 65
     0
276
    -2
286
     1
 66
     0
277
    -2
287
     1
 67
     0
278
    -2
288
     1
 68
     0
279
    -2
289
     1
 69
     0
  0
VISUALSTYLE
  5
9D
102
{ACAD_REACTORS
330
97
102
}
330
97
100
AcDbVisualStyle
  2
2dWireframe
 70
     4
 71
     0
 72
     2
 73
     1
 90
        0
 40
-0.6
 41
-30.0
 62
     5
 63
     7
421
 16777215
 74
     1
 91
        4
 64
     7
 65
   257
 75
     1
175
     1
 42
1.0
 92
        0
 66
   257
 43
1.0
 76
     1
 77
     6
 78
     2
 67
     7
 79
     5
170
     0
171
     0
290
     0
174
     0
 93
        1
 44
0.0
173
     0
291
     0
 45
0.0
  0
VISUALSTYLE
  5
9F
102
{ACAD_REACTORS
330
97
102
}
330
97
100
AcDbVisualStyle
  2
3D Hidden
 70
     6
 71
     1
 72
     2
 73
     2
 90
        0
 40
-0.6
 41
-30.0
 62
     5
 63
     7
421
 16777215
 74
     2
 91
        2
 64
     7
 65
   257
 75
     2
175
     1
 42
40.0
 92
        0
 66
   257
 43
1.0
 76
     1
 77
     6
 78
     2
 67
     7
 79
     3
170
     0
171
     0
290
     0
174
     0
 93
        1
 44
0.0
173
     0
291
     0
 45
0.0
  0
VISUALSTYLE
  5
9E
102
{ACAD_REACTORS
330
97
102
}
330
97
100
AcDbVisualStyle
  2
3dWireframe
 70
     5
 71
     0
 72
     2
 73
     1
 90
        0
 40
-0.6
 41
-30.0
 62
     5
 63
     7
421
 16777215
 74
     1
 91
        4
 64
     7
 65
   257
 75
     1
175
     1
 42
1.0
 92
        0
 66
   257
 43
1.0
 76
     1
 77
     6
 78
     2
 67
     7
 79
     5
170
     0
171
     0
290
     0
174
     0
 93
        1
 44
0.0
173
     0
291
     0
 45
0.0
  0
VISUALSTYLE
  5
9C
102
{ACAD_REACTORS
330
97
102
}
330
97
100
AcDbVisualStyle
  2
Basic
 70
     7
 71
     1
 72
     0
 73
     1
 90
        0
 40
-0.6
 41
-30.0
 62
     5
 63
     7
421
 16777215
 74
     0
 91
        4
 64
     7
 65
   257
 75
     1
175
     1
 42
1.0
 92
        8
 66
     7
 43
1.0
 76
     1
 77
     6
 78
     2
 67
     7
 79
     5
170
     0
171
     0
290
     0
174
     0
 93
        1
 44
0.0
173
     0
291
     1
 45
0.0
  0
VISUALSTYLE
  5
A3
102
{ACAD_REACTORS
330
97
102
}
330
97
100
AcDbVisualStyle
  2
Brighten
 70
    12
 71
     2
 72
     2
 73
     1
 90
        0
 40
-0.6
 41
-30.0
 62
     5
 63
     7
421
 16777215
 74
     1
 91
        4
 64
     7
 65
   257
 75
     1
175
     1
 42
1.0
 92
        8
 66
     7
 43
1.0
 76
     1
 77
     6
 78
     2
 67
     7
 79
     5
170
     0
171
     0
290
     0
174
     0
 93
        1
 44
50.0
173
     0
291
     1
 45
0.0
  0
VISUALSTYLE
  5
A7
102
{ACAD_REACTORS
330
97
102
}
330
97
100
AcDbVisualStyle
  2
ColorChange
 70
    16
 71
     2
 72
     2
 73
     3
 90
        0
 40
-0.6
 41
-30.0
 62
     5
 63
     8
421
  8421504
 74
     1
 91
        4
 64
     7
 65
   257
 75
     1
175
     1
 42
1.0
 92
        8
 66
     8
424
  8421504
 43
1.0
 76
     1
 77
     6
 78
     2
 67
     7
 79
     5
170
     0
171
     0
290
     0
174
     0
 93
        1
 44
0.0
173
     0
291
     1
 45
0.0
  0
VISUALSTYLE
  5
A0
102
{ACAD_REACTORS
330
97
102
}
330
97
100
AcDbVisualStyle
  2
Conceptual
 70
     9
 71
     3
 72
     2
 73
     1
 90
        0
 40
-0.6
 41
-30.0
 62
     5
 63
     7
421
 16777215
 74
     2
 91
        2
 64
     7
 65
   257
 75
     1
175
     1
 42
40.0
 92
        8
 66
     7
 43
1.0
 76
     1
 77
     6
 78
     2
 67
     7
 79
     3
170
     0
171
     0
290
     0
174
     0
 93
        1
 44
0.0
173
     0
291
     0
 45
0.0
  0
VISUALSTYLE
  5
A2
102
{ACAD_REACTORS
330
97
102
}
330
97
100
AcDbVisualStyle
  2
Dim
 70
    11
 71
     2
 72
     2
 73
     1
 90
        0
 40
-0.6
 41
-30.0
 62
     5
 63
     7
421
 16777215
 74
     1
 91
        4
 64
     7
 65
   257
 75
     1
175
     1
 42
1.0
 92
        8
 66
     7
 43
1.0
 76
     1
 77
     6
 78
     2
 67
     7
 79
     5
170
     0
171
     0
290
     0
174
     0
 93
        1
 44
-50.0
173
     0
291
     1
 45
0.0
  0
VISUALSTYLE
  5
A6
102
{ACAD_REACTORS
330
97
102
}
330
97
100
AcDbVisualStyle
  2
Facepattern
 70
    15
 71
     2
 72
     2
 73
     1
 90
        0
 40
-0.6
 41
-30.0
 62
     5
 63
     7
421
 16777215
 74
     1
 91
        4
 64
     7
 65
   257
 75
     1
175
     1
 42
1.0
 92
        8
 66
     7
 43
1.0
 76
     1
 77
     6
 78
     2
 67
     7
 79
     5
170
     0
171
     0
290
     0
174
     0
 93
        1
 44
0.0
173
     0
291
     1
 45
0.0
  0
VISUALSTYLE
  5
98
102
{ACAD_REACTORS
330
97
102
}
330
97
100
AcDbVisualStyle
  2
Flat
 70
     0
 71
     2
 72
     1
 73
     1
 90
        2
 40
-0.6
 41
30.0
 62
     5
 63
     7
421
 16777215
 74
     0
 91
        4
 64
     7
 65
   257
 75
     1
175
     1
 42
1.0
 92
        8
 66
     7
 43
1.0
 76
     1
 77
     6
 78
     2
 67
     7
 79
     5
170
     0
171
     0
290
     0
174
     0
 93
        1
 44
0.0
173
     0
291
     1
 45
0.0
  0
VISUALSTYLE
  5
99
102
{ACAD_REACTORS
330
97
102
}
330
97
100
AcDbVisualStyle
  2
FlatWithEdges
 70
     1
 71
     2
 72
     1
 73
     1
 90
        2
 40
-0.6
 41
30.0
 62
     5
 63
     7
421
 16777215
 74
     1
 91
        4
 64
     7
 65
   257
 75
     1
175
     1
 42
1.0
 92
        0
 66
   257
 43
1.0
 76
     1
 77
     6
 78
     2
 67
     7
 79
     5
170
     0
171
     0
290
     0
174
     0
 93
        1
 44
0.0
173
     0
291
     1
 45
0.0
  0
VISUALSTYLE
  5
9A
102
{ACAD_REACTORS
330
97
102
}
330
97
100
AcDbVisualStyle
  2
Gouraud
 70
     2
 71
     2
 72
     2
 73
     1
 90
        2
 40
-0.6
 41
30.0
 62
     5
 63
     7
421
 16777215
 74
     0
 91
        4
 64
     7
 65
   257
 75
     1
175
     1
 42
1.0
 92
        0
 66
     7
 43
1.0
 76
     1
 77
     6
 78
     2
 67
     7
 79
     5
170
     0
171
     0
290
     0
174
     0
 93
        1
 44
0.0
173
     0
291
     1
 45
0.0
  0
VISUALSTYLE
  5
9B
102
{ACAD_REACTORS
330
97
102
}
330
97
100
AcDbVisualStyle
  2
GouraudWithEdges
 70
     3
 71
     2
 72
     2
 73
     1
 90
        2
 40
-0.6
 41
30.0
 62
     5
 63
     7
421
 16777215
 74
     1
 91
        4
 64
     7
 65
   257
 75
     1
175
     1
 42
1.0
 92
        0
 66
   257
 43
1.0
 76
     1
 77
     6
 78
     2
 67
     7
 79
     5
170
     0
171
     0
290
     0
174
     0
 93
        1
 44
0.0
173
     0
291
     1
 45
0.0
  0
VISUALSTYLE
  5
A5
102
{ACAD_REACTORS
330
97
102
}
330
97
100
AcDbVisualStyle
  2
Linepattern
 70
    14
 71
     2
 72
     2
 73
     1
 90
        0
 40
-0.6
 41
-30.0
 62
     5
 63
     7
421
 16777215
 74
     1
 91
        4
 64
     7
 65
   257
 75
     7
175
     7
 42
1.0
 92
        8
 66
     7
 43
1.0
 76
     1
 77
     6
 78
     2
 67
     7
 79
     5
170
     0
171
     0
290
     0
174
     0
 93
        1
 44
0.0
173
     0
291
     1
 45
0.0
  0
VISUALSTYLE
  5
A1
102
{ACAD_REACTORS
330
97
102
}
330
97
100
AcDbVisualStyle
  2
Realistic
 70
     8
 71
     2
 72
     2
 73
     1
 90
        0
 40
-0.6
 41
-30.0
 62
     5
 63
     7
421
 16777215
 74
     1
 91
        0
 64
     7
 65
   257
 75
     1
175
     1
 42
1.0
 92
        8
 66
     8
424
  7895160
 43
1.0
 76
     1
 77
     6
 78
     2
 67
     7
 79
     5
170
     0
171
     0
290
     0
174
     0
 93
       13
 44
0.0
173
     0
291
     0
 45
0.0
  0
VISUALSTYLE
  5
A4
102
{ACAD_REACTORS
330
97
102
}
330
97
100
AcDbVisualStyle
  2
Thicken
 70
    13
 71
     2
 72
     2
 73
     1
 90
        0
 40
-0.6
 41
-30.0
 62
     5
 63
     7
421
 16777215
 74
     1
 91
        4
 64
     7
 65
   257
 75
     1
175
     1
 42
1.0
 92
       12
 66
     7
 43
1.0
 76
     1
 77
     6
 78
     2
 67
     7
 79
     5
170
     0
171
     0
290
     0
174
     0
 93
        1
 44
0.0
173
     0
291
     1
 45
0.0
  0
DICTIONARYVAR
  5
8B
102
{ACAD_REACTORS
330
66
102
}
330
66
100
DictionaryVariables
280
     0
  1
STANDARD
  0
DICTIONARYVAR
  5
67
102
{ACAD_REACTORS
330
66
102
}
330
66
100
DictionaryVariables
280
     0
  1
2
  0
DICTIONARYVAR
  5
6B
102
{ACAD_REACTORS
330
66
102
}
330
66
100
DictionaryVariables
280
     0
  1
1
  0
ENDSEC
  0
EOF
